<?xml version="1.0" encoding="UTF-8"?>
<svg width="100px" height="100px" viewBox="0 0 100 100" version="1.1" xmlns="http://www.w3.org/2000/svg" xmlns:xlink="http://www.w3.org/1999/xlink">
    <!-- Generator: Sketch 52.6 (67491) - http://www.bohemiancoding.com/sketch -->
    <title>Artboard</title>
    <desc>Created with Sketch.</desc>
    <g id="Artboard" stroke="none" stroke-width="1" fill="none" fill-rule="evenodd">
        <g id="Group-10">
            <path d="M89,78.4372794 C89,73.5638717 81.1596999,70.856423 77.1982851,69.3866651 C74.8049303,68.458397 72.3290461,67.5301289 69.9356913,66.5245051 C66.7170418,65.1321029 63.4158628,63.5076336 61.022508,60.9548963 C60.1972133,60.0266281 59.7020364,59.4077827 59.7020364,58.1700919 C59.7020364,56.3909113 60.1972133,54.6117307 60.6098607,52.9099058 C61.2700965,50.2798128 62.6730975,48.1138538 63.8285102,45.6384721 C65.1489818,42.544245 65.6441586,39.2953066 66.3043944,36.1237238 C66.5519829,34.7313216 66.9646302,33.4162751 66.9646302,32.0238729 C66.9646302,22.4317689 61.6002144,14 50.4587353,14 C39.3172562,14 33.9528403,22.4317689 33.9528403,32.0238729 C33.9528403,33.4162751 34.4480171,34.7313216 34.6956056,36.1237238 C35.4383708,39.2953066 35.8510182,42.544245 37.2540193,45.6384721 C38.4094319,48.1138538 39.8949625,50.2798128 40.4726688,52.9099058 C40.9678457,54.6117307 41.380493,56.3909113 41.380493,58.1700919 C41.380493,59.4077827 40.8853162,60.0266281 40.0600214,60.9548963 C37.6666667,63.5076336 34.3654877,65.1321029 31.1468382,66.5245051 C28.7534834,67.6074845 26.2775991,68.458397 23.8842444,69.3866651 C19.9228296,70.9337787 12,73.5638717 12,78.4372794 L12,81.6862179 C12,81.6862179 12.2015326,81.7715516 12.5778324,81.9270676 C14.4938254,82.718903 20.2821767,88.3560634 27.7268117,91.8996033 C35.2895526,95.4993598 44.5404872,97 50.4587345,97 C56.3764498,97 65.4219685,96.2208198 73.0607404,92.5343238 C81.9167369,88.2603911 89,80.9919687 89,80.9919687 L89,81.6862179 L89,78.4372794 Z" id="User-Icon" fill="#9B9B9B"></path>
            <circle id="Oval-15" stroke="#9B9B9B" stroke-width="8" cx="50" cy="50" r="46"></circle>
        </g>
    </g>
</svg>